<?xml version="1.0" standalone="no"?>
<!DOCTYPE svg PUBLIC "-//W3C//DTD SVG 20010904//EN"
 "http://www.w3.org/TR/2001/REC-SVG-20010904/DTD/svg10.dtd">
<svg version="1.0" xmlns="http://www.w3.org/2000/svg"
 width="436.000000pt" height="852.000000pt" viewBox="0 0 436.000000 852.000000"
 preserveAspectRatio="xMidYMid meet">
<metadata>
Created by potrace 1.16, written by Peter Selinger 2001-2019
</metadata>
<g transform="translate(0.000000,852.000000) scale(0.100000,-0.100000)"
fill="#000000" stroke="none">
<path d="M2033 8508 c-11 -15 -43 -83 -43 -92 0 -3 16 -12 35 -20 19 -8 38
-22 41 -30 4 -11 12 -13 29 -6 31 12 65 1 65 -20 0 -10 -4 -20 -9 -22 -5 -1
-3 -12 5 -23 12 -16 16 -17 23 -6 6 9 16 11 27 7 16 -6 16 -9 4 -17 -12 -9
-10 -10 7 -6 14 3 20 1 17 -8 -3 -7 2 -20 11 -29 12 -12 14 -20 6 -33 -10 -17
-11 -16 -17 5 -3 12 -11 22 -18 22 -6 0 -17 9 -24 21 -7 11 -20 18 -27 15 -14
-5 -38 11 -92 62 -13 12 -28 22 -33 22 -6 0 -10 7 -10 15 0 8 -9 15 -19 15
-11 0 -21 6 -24 13 -3 9 -9 8 -22 -4 -22 -21 -6 -56 31 -65 14 -4 23 -12 21
-19 -4 -8 3 -10 18 -7 18 3 36 -8 76 -47 29 -28 57 -51 63 -51 6 0 5 -5 -2
-12 -7 -7 -12 -29 -12 -49 0 -21 -4 -39 -8 -41 -17 -7 -88 -139 -74 -137 4 1
15 1 25 0 23 -1 22 -21 -1 -21 -10 0 -24 -9 -32 -20 -8 -11 -20 -20 -26 -20
-6 0 -20 -12 -29 -27 -17 -25 -17 -27 1 -40 10 -7 24 -13 31 -13 18 0 16 -14
-5 -33 -23 -21 -46 -22 -61 -3 -17 21 -110 68 -121 61 -5 -3 -23 -31 -41 -63
-52 -91 -79 -122 -105 -122 -22 0 -24 3 -18 28 4 15 11 29 16 30 4 2 8 8 8 13
0 10 44 77 93 140 40 53 36 70 -27 112 l-54 36 -27 -35 c-14 -19 -29 -51 -32
-72 -7 -43 -53 -117 -95 -151 -28 -22 -47 -54 -102 -166 -13 -27 -34 -62 -47
-76 -25 -28 -123 -69 -164 -69 -13 0 -25 -5 -27 -11 -6 -19 -121 -61 -129 -47
-5 8 -16 7 -40 -5 -30 -14 -31 -17 -14 -23 11 -5 20 -3 23 4 4 14 22 16 22 4
0 -5 -19 -17 -42 -28 -25 -11 -80 -57 -133 -110 -93 -94 -108 -124 -76 -152
14 -12 14 -13 -2 -8 -10 3 -25 -1 -33 -9 -9 -8 -11 -15 -5 -15 6 0 8 -7 5 -15
-4 -8 -10 -15 -15 -15 -12 0 -49 -38 -49 -50 0 -14 9 -12 27 5 22 23 28 10 9
-20 -10 -15 -26 -25 -40 -25 -13 0 -26 -7 -30 -15 -3 -9 -18 -15 -36 -15 -16
0 -30 -4 -30 -9 0 -5 -15 -15 -32 -21 -25 -10 -28 -14 -15 -17 24 -6 21 -16
-12 -35 -21 -11 -28 -22 -25 -35 6 -20 -45 -65 -68 -60 -7 2 -10 2 -5 0 10 -7
9 -31 -3 -38 -6 -3 -7 1 -4 9 10 26 -6 18 -47 -21 -38 -37 -56 -72 -21 -40 32
29 35 18 6 -16 -16 -19 -34 -42 -40 -53 -10 -16 -11 -15 -7 11 5 28 4 29 -9
10 -8 -11 -18 -32 -21 -46 -8 -33 -51 -78 -97 -102 -27 -15 -31 -20 -19 -28
10 -8 8 -9 -9 -4 -12 3 -22 2 -22 -3 0 -14 -85 -52 -115 -52 -15 0 -24 4 -20
10 3 6 1 10 -4 10 -6 0 -11 -7 -11 -15 0 -8 -4 -15 -9 -15 -5 0 -11 7 -15 15
-24 63 -26 -47 -26 -1285 l0 -1299 35 -17 c20 -9 38 -20 41 -25 8 -14 -2 -11
-41 11 l-35 20 0 -1091 0 -1091 22 16 c46 34 105 54 176 61 39 4 75 11 78 16
3 5 10 7 15 3 15 -9 0 -24 -25 -24 -13 0 -31 -9 -41 -20 -14 -15 -21 -17 -32
-8 -30 25 -193 -38 -193 -75 0 -13 173 -17 186 -4 12 11 24 8 24 -7 0 -17 -27
-40 -34 -28 -3 5 -44 9 -91 9 l-85 1 1 -272 c1 -270 1 -271 17 -214 9 31 21
60 25 65 10 9 -1 -44 -14 -69 -5 -9 -9 -24 -9 -32 0 -22 20 -20 21 2 0 10 3
12 6 4 2 -6 9 -10 14 -6 5 3 9 -1 9 -10 0 -8 -5 -16 -11 -18 -7 -2 -20 -24
-31 -48 -16 -39 -18 -18 -2 24 4 10 1 16 -8 16 -11 0 -14 -51 -16 -291 -2
-160 0 -289 5 -287 4 2 35 17 68 32 33 15 67 31 75 35 18 10 35 64 27 85 -5
13 -16 10 -68 -16 -35 -17 -71 -40 -81 -52 l-19 -21 3 25 c3 26 24 40 108 70
25 9 50 26 56 38 13 26 27 42 24 27 -1 -5 -2 -16 -1 -23 2 -21 21 -3 21 19 0
11 4 17 10 14 14 -8 13 -154 -1 -194 -13 -38 -5 -52 16 -25 11 15 14 16 15 3
0 -8 -7 -24 -15 -35 -8 -10 -15 -15 -15 -10 0 5 -9 1 -19 -8 -11 -10 -24 -15
-30 -12 -6 4 -17 -8 -24 -26 l-14 -33 2 30 c1 17 8 49 15 73 7 23 10 45 6 49
-8 8 -119 -44 -146 -69 -18 -17 -30 -88 -14 -88 3 0 25 12 50 26 24 14 49 24
56 22 7 -3 -1 -11 -17 -20 -17 -8 -45 -24 -62 -34 l-33 -19 0 -122 0 -123
1219 0 c1203 0 1219 0 1224 20 3 13 -1 21 -14 25 -26 9 -24 25 4 25 20 1 21 2
5 14 -10 7 -18 16 -18 20 0 4 8 6 18 5 30 -3 43 1 37 10 -3 6 4 15 15 21 11 6
18 15 15 21 -4 5 7 14 24 20 17 6 31 17 31 25 0 8 4 14 9 14 5 0 15 26 22 57
7 32 19 66 27 76 8 9 11 17 6 17 -5 0 -2 5 8 10 9 6 14 18 11 29 -3 10 0 22 6
25 6 4 11 24 12 44 2 56 13 87 33 90 15 3 17 0 11 -14 -15 -37 -17 -62 -5 -69
7 -4 16 -1 21 6 12 19 11 79 -1 79 -5 0 -10 7 -10 15 0 8 5 15 12 15 6 0 9 3
5 6 -3 3 4 15 15 26 16 16 19 28 14 59 -5 29 -1 50 13 78 11 21 20 47 19 57 0
10 1 26 3 34 3 11 -5 15 -36 15 -35 0 -40 -3 -43 -24 -2 -14 2 -51 8 -83 7
-32 10 -61 7 -64 -3 -4 -18 -3 -32 0 l-26 7 2 102 c2 134 -6 175 -37 183 -39
10 -54 -2 -55 -43 -2 -49 1 -67 11 -73 12 -8 -23 -47 -38 -42 -10 3 -10 7 -1
19 10 12 10 16 -2 23 -10 7 -14 32 -15 96 0 56 -5 88 -13 93 -19 12 -55 2 -86
-25 -47 -40 -73 -21 -32 24 15 16 15 20 2 39 -13 19 -13 21 8 27 12 3 32 22
45 43 30 51 29 50 120 198 44 72 89 149 101 172 11 23 25 44 30 47 11 7 124
19 161 17 29 -1 143 22 181 37 22 9 39 30 39 48 0 2 -24 1 -52 -1 -60 -5 -118
3 -118 16 0 5 8 9 18 10 10 0 12 3 5 6 -7 2 -13 19 -13 36 0 23 -11 41 -44 72
-43 41 -86 63 -86 43 0 -15 -79 74 -80 89 0 20 -102 118 -143 136 -24 12 -42
29 -51 51 -8 19 -20 38 -28 42 -8 5 -24 25 -36 44 l-22 35 0 -41 c0 -72 -14
-77 -166 -60 -71 7 -121 14 -111 15 10 0 15 6 12 11 -3 5 0 10 7 11 7 0 27 2
43 2 23 2 30 7 30 22 0 16 -8 21 -42 23 -53 4 -55 17 -5 30 l37 10 -47 1 c-27
1 -48 6 -48 12 0 5 5 7 10 4 19 -12 10 14 -12 35 l-22 20 72 -5 c78 -6 74 -8
153 69 22 21 38 40 36 42 -2 3 -30 -9 -62 -26 -57 -30 -129 -45 -150 -32 -5 3
-22 5 -36 4 -36 -4 -45 22 -14 42 13 9 29 16 35 16 5 0 10 4 10 8 0 13 -23 32
-40 32 -23 0 -72 30 -120 72 -46 41 -51 66 -10 45 21 -11 27 -11 37 2 10 14
13 13 22 -9 l10 -25 1 25 2 25 8 -26 c13 -43 42 -80 83 -106 31 -20 50 -24 96
-22 32 1 63 -1 70 -5 6 -4 17 -3 24 3 7 5 38 9 70 8 43 -2 56 1 53 10 -3 7 3
17 14 23 25 14 37 13 22 -2 -15 -15 -16 -48 -2 -48 6 0 10 9 10 21 0 17 4 20
23 15 14 -3 32 1 43 10 18 14 17 14 -11 12 -23 -2 -30 1 -32 17 -2 11 0 14 3
7 3 -6 10 -9 15 -6 17 10 84 12 90 2 3 -5 19 -6 34 -2 25 6 26 8 12 19 -19 14
-12 25 14 25 33 0 30 -20 -10 -57 -62 -59 -69 -64 -76 -53 -9 15 -19 12 -45
-10 -13 -11 -31 -20 -41 -20 -10 0 -20 -4 -23 -9 -3 -5 -24 -9 -46 -9 -36 -1
-40 2 -35 19 11 34 -14 20 -30 -17 -8 -20 -15 -38 -15 -39 0 -6 45 8 57 17 7
5 17 7 23 3 16 -10 115 14 158 38 22 12 56 35 77 51 34 28 39 29 68 17 57 -23
78 -25 71 -7 -3 9 -10 14 -14 11 -5 -3 -20 -1 -34 5 -27 10 -36 40 -12 40 8 0
20 2 28 5 11 4 61 -55 63 -75 1 -5 57 -86 75 -107 5 -7 10 -15 10 -18 0 -3 18
-30 40 -60 22 -30 40 -58 40 -63 0 -4 7 -17 15 -27 9 -11 31 -45 50 -75 29
-45 35 -64 35 -110 0 -30 1 -84 3 -120 1 -36 -1 -80 -5 -99 -7 -29 -6 -32 7
-21 22 18 31 4 16 -24 -10 -18 -10 -39 -1 -102 7 -43 15 -83 18 -89 4 -5 5
-21 3 -34 -2 -19 1 -22 14 -17 13 5 15 2 10 -14 -4 -12 0 -26 9 -36 9 -9 16
-32 16 -55 0 -37 20 -58 20 -21 1 13 4 11 15 -8 8 -14 14 -30 15 -37 0 -20 48
-65 60 -58 7 4 10 0 8 -11 -2 -14 3 -18 19 -17 16 2 21 -2 17 -12 -4 -8 -9
-13 -13 -11 -3 2 -6 -8 -7 -22 0 -15 -3 -34 -6 -42 -2 -8 -3 -12 -1 -8 2 4 11
4 19 1 9 -3 11 -9 6 -12 -5 -3 -13 -20 -16 -37 -6 -26 -3 -34 18 -48 17 -10
23 -22 19 -32 -5 -13 -2 -15 15 -9 18 5 22 2 22 -13 0 -25 25 -35 40 -17 13
16 34 10 24 -6 -3 -5 -1 -15 4 -22 6 -7 10 -25 11 -42 1 -58 2 -65 17 -65 16
0 19 -16 4 -25 -18 -11 -11 -27 9 -20 14 4 24 -2 37 -25 10 -16 24 -30 31 -30
7 0 13 -6 13 -12 0 -9 3 -9 8 -2 4 5 17 10 30 10 18 0 22 -6 22 -31 0 -23 3
-27 11 -15 7 12 9 9 7 -13 -3 -28 -3 -28 -92 -32 -49 -3 -130 -16 -180 -29
-167 -45 -339 -88 -365 -91 -14 -2 -32 2 -38 7 -7 6 -35 12 -61 15 l-49 4 -55
-113 c-31 -62 -64 -123 -75 -135 -94 -110 -143 -173 -143 -181 0 -6 -38 -49
-84 -96 l-84 -86 336 0 337 0 2 55 c2 31 7 64 13 75 5 10 10 42 10 70 0 44 3
52 25 62 22 10 36 48 18 48 -5 0 -16 20 -26 44 -17 41 -17 47 -2 75 20 39 30
39 50 0 11 -21 14 -43 10 -74 -4 -26 -2 -59 5 -80 9 -28 10 -52 2 -93 -6 -32
-14 -85 -17 -119 l-7 -63 561 0 561 0 -2 2427 -3 2427 -90 38 c-124 53 -157
69 -179 88 -10 8 -21 13 -25 10 -3 -3 -7 22 -8 55 l-2 60 14 -45 c19 -64 18
-19 -1 70 -9 41 -16 96 -16 123 0 26 -4 45 -9 42 -5 -4 -9 1 -9 10 0 10 5 13
12 9 7 -4 8 -3 4 5 -12 19 2 59 24 66 11 3 20 13 20 21 0 20 46 103 73 131 21
24 57 23 87 -2 25 -21 62 -28 70 -14 12 19 2 36 -30 49 -35 15 -45 36 -28 64
8 12 12 33 10 48 -3 24 -6 27 -23 18 -10 -6 -19 -20 -19 -32 0 -12 -3 -18 -6
-15 -7 7 15 97 24 97 3 0 16 -10 29 -22 l23 -21 0 21 c0 13 -6 22 -15 22 -10
0 -15 10 -15 26 0 23 3 26 25 22 l25 -5 -26 23 c-14 13 -29 24 -34 24 -8 0
-16 81 -19 198 -1 29 -6 62 -11 75 -16 35 -48 86 -70 109 -12 13 -17 30 -15
47 27 166 42 552 22 579 -7 8 -5 17 5 25 39 33 41 45 14 70 -14 13 -26 30 -26
36 0 7 -5 9 -11 6 -6 -4 -13 2 -16 13 -3 11 -11 23 -19 26 -8 3 -14 12 -14 21
0 8 -4 15 -10 15 -5 0 -10 9 -10 20 0 11 -13 49 -29 85 -16 35 -27 65 -25 68
2 2 -5 12 -16 22 -11 10 -20 24 -20 31 0 7 -4 14 -9 16 -9 3 -66 92 -90 140
-8 15 -22 30 -32 33 -10 3 -21 15 -24 26 -10 31 -115 139 -136 139 -10 0 -19
4 -19 9 0 5 10 7 23 4 22 -5 22 -5 2 10 -11 9 -28 17 -37 17 -10 0 -18 4 -18
8 0 4 -16 6 -35 4 -20 -2 -35 0 -35 6 0 11 -38 28 -52 24 -5 -1 -8 3 -8 8 0 6
-15 10 -34 10 -25 0 -36 5 -41 19 -8 25 -55 79 -55 63 0 -10 -5 -10 -20 -2
-11 6 -20 15 -20 21 0 14 -41 48 -59 49 -7 0 -11 -6 -8 -14 4 -10 0 -12 -14
-9 -10 3 -19 9 -19 13 0 4 -21 11 -46 15 -26 3 -56 10 -68 15 -20 8 -20 9 4
11 23 1 23 2 -5 8 -16 4 -36 3 -42 -2 -9 -7 -13 -5 -13 7 0 10 -8 16 -22 15
-13 0 -17 -3 -10 -6 6 -2 10 -9 6 -14 -7 -12 -221 -12 -229 1 -4 6 5 10 20 10
15 0 24 4 20 10 -3 6 -24 10 -45 10 -31 0 -50 9 -97 47 -69 56 -171 142 -233
198 -25 22 -63 54 -84 70 -58 44 -204 163 -255 207 -46 40 -99 51 -118 26z
m-918 -1167 c-3 -6 10 -8 32 -5 32 5 35 3 19 -7 -15 -9 -16 -13 -5 -21 11 -7
11 -11 2 -15 -7 -2 -13 -10 -13 -18 0 -7 -18 -15 -42 -19 -42 -7 -42 -8 -19
-20 17 -9 20 -15 11 -21 -7 -4 -16 -2 -21 6 -8 11 -12 10 -24 -5 -8 -11 -15
-16 -15 -12 0 4 -30 -23 -66 -61 -37 -37 -71 -67 -75 -65 -5 1 -9 -4 -9 -10 0
-18 -49 -76 -50 -60 0 8 9 25 20 39 11 14 20 31 20 37 0 6 16 28 36 49 20 20
30 37 23 37 -7 0 -28 -16 -46 -36 -18 -20 -33 -33 -33 -30 0 36 147 190 215
225 47 24 48 24 40 12z m2070 -2 c4 -6 -1 -17 -11 -25 -18 -13 -17 -14 11 -11
18 2 30 10 30 18 0 15 61 17 123 4 21 -5 38 -3 48 6 14 11 18 11 29 -4 14 -19
42 -14 63 12 11 14 13 14 27 -3 8 -10 21 -16 29 -13 9 4 15 3 14 -1 -4 -13 34
-62 43 -56 5 3 9 -1 9 -8 0 -8 15 -18 33 -23 17 -6 32 -14 32 -20 1 -19 20
-41 49 -53 20 -9 27 -18 23 -32 -6 -22 24 -53 44 -45 9 3 22 -13 38 -50 13
-30 27 -52 31 -50 5 3 11 1 15 -4 3 -5 -3 -14 -12 -20 -16 -9 -14 -10 10 -11
27 0 27 -1 13 -21 -11 -16 -12 -28 -4 -48 20 -51 18 -83 -4 -106 -12 -13 -28
-21 -35 -18 -17 7 -17 -28 1 -52 10 -14 24 -19 50 -17 20 2 36 -2 36 -8 0 -5
-17 -10 -37 -10 -28 0 -34 -3 -23 -10 12 -8 11 -10 -8 -10 -26 0 -40 -26 -23
-43 6 -6 11 -19 11 -29 0 -10 5 -18 10 -18 14 0 12 -37 -2 -44 -10 -5 -10 -7
0 -12 15 -7 52 -81 52 -106 0 -10 5 -18 10 -18 6 0 11 26 11 58 1 51 2 53 9
22 4 -19 8 -26 9 -15 1 17 3 18 11 5 10 -16 3 -129 -9 -143 -4 -4 -14 5 -22
20 -8 16 -18 33 -24 39 -5 7 -18 21 -27 33 -11 13 -29 21 -47 21 -18 0 -49 15
-82 40 -30 22 -61 40 -71 40 -9 0 -20 5 -23 10 -3 6 -30 10 -58 9 -38 0 -47
-3 -32 -9 17 -7 16 -9 -10 -10 -28 -1 -29 -2 -7 -10 30 -12 28 -23 -3 -18 -20
4 -23 3 -14 -8 13 -16 63 -19 54 -4 -3 6 3 10 14 10 14 0 19 -5 15 -15 -4 -8
-15 -15 -25 -15 -10 0 -19 -4 -19 -10 0 -5 15 -10 33 -10 24 0 28 -3 17 -10
-12 -8 -9 -10 14 -10 22 0 27 -4 22 -16 -5 -13 -1 -15 17 -12 20 4 23 1 19
-19 -3 -13 1 -23 7 -23 22 0 116 -47 133 -66 9 -11 18 -30 20 -44 1 -14 6 -27
10 -30 12 -10 13 -45 1 -43 -19 4 -16 -14 7 -37 11 -11 20 -33 20 -51 0 -17 4
-28 10 -24 13 8 14 15 -19 -121 -19 -76 -32 -160 -36 -234 -13 -243 -45 -372
-116 -477 -41 -61 -472 -492 -525 -525 -21 -14 -45 -33 -53 -42 -7 -9 -17 -16
-22 -16 -4 0 -20 -11 -35 -25 -15 -14 -39 -25 -54 -25 -15 0 -37 -9 -50 -20
-12 -11 -31 -22 -42 -26 -12 -4 -17 -11 -14 -21 4 -10 2 -13 -8 -10 -20 8 -86
-14 -86 -28 0 -7 -9 -10 -24 -8 -13 3 -27 0 -30 -6 -4 -6 -18 -11 -32 -11 -14
0 -23 -4 -19 -9 3 -6 -7 -6 -27 0 -41 11 -51 11 -44 0 7 -10 -193 -51 -250
-51 -26 0 -51 7 -67 20 -14 11 -34 20 -46 20 -11 0 -32 11 -47 25 -15 14 -39
28 -53 32 -14 3 -32 13 -39 20 -8 8 -23 11 -33 8 -20 -7 -22 -3 -33 48 -4 15
-13 27 -22 27 -22 0 -64 49 -64 76 0 13 -4 24 -9 24 -5 0 -11 14 -15 30 -4 21
-11 30 -25 30 -11 0 -23 5 -26 10 -3 6 -2 10 4 10 6 0 8 7 5 15 -4 8 -10 12
-15 9 -5 -3 -9 0 -9 5 0 6 6 11 13 11 7 0 8 3 2 8 -5 4 -16 15 -24 25 -12 15
-12 17 4 11 11 -5 16 -4 12 3 -9 15 -11 75 -3 101 5 16 3 22 -8 22 -8 0 -18 5
-21 11 -14 21 -22 173 -14 239 1 8 1 31 1 52 -2 30 -5 35 -20 31 -16 -4 -18 2
-17 46 1 36 -3 51 -12 51 -7 0 -13 -5 -13 -12 0 -6 -3 -8 -7 -4 -5 4 -7 11 -6
14 1 4 -2 12 -7 17 -8 10 -13 45 -11 78 1 9 8 17 16 17 16 0 15 3 -23 45 -9
10 -10 20 -3 32 5 10 11 33 13 52 3 32 0 35 -31 43 -19 5 -43 7 -53 5 -16 -5
-17 -3 -7 9 6 8 8 18 4 22 -4 4 -10 1 -12 -5 -3 -7 -9 -13 -15 -13 -7 0 -9 19
-5 55 5 47 3 55 -11 56 -11 0 -9 4 7 10 31 12 50 -5 55 -49 3 -17 7 -36 11
-42 9 -15 25 -2 19 14 -3 8 -1 17 5 21 7 3 11 -2 11 -14 0 -12 5 -21 10 -21
13 0 13 3 -5 48 -9 22 -29 49 -46 61 -16 12 -27 27 -23 32 4 6 12 5 22 -3 14
-12 14 -10 2 12 -7 14 -24 42 -38 63 -19 29 -22 41 -14 49 9 9 12 7 12 -10 0
-12 5 -22 10 -22 6 0 10 18 10 39 0 30 5 41 19 46 11 3 21 16 23 28 2 12 10
21 17 19 9 -2 11 3 7 14 -19 50 -19 65 3 71 19 5 21 12 20 52 -4 75 26 150 76
194 20 17 19 17 -10 11 l-30 -7 28 26 c15 14 27 30 27 36 0 5 8 12 18 15 16 5
46 57 47 81 0 6 13 9 28 9 17 -1 19 0 7 3 -11 2 -20 8 -20 13 0 11 28 20 44
14 8 -3 24 4 35 15 12 12 26 21 31 21 6 0 10 5 10 10 0 7 7 7 21 -1 12 -6 35
-8 53 -5 21 4 39 1 51 -9 11 -8 25 -15 32 -15 21 0 103 -61 103 -76 0 -8 9
-14 20 -14 11 0 20 -4 20 -9 0 -10 58 -36 65 -29 3 3 -6 11 -20 18 -14 7 -25
20 -25 27 0 8 -12 25 -27 39 -44 41 -22 35 52 -13 76 -49 173 -98 181 -90 3 2
-15 16 -39 30 -61 36 -82 62 -28 36 22 -10 44 -19 49 -19 5 0 15 -6 21 -14 6
-7 33 -21 59 -31 26 -10 51 -21 56 -26 12 -11 -41 -1 -65 11 -10 6 -24 10 -31
10 -26 0 77 -51 123 -61 26 -6 55 -17 65 -24 33 -26 -2 -36 -106 -33 -76 3
-105 9 -145 28 -27 14 -51 28 -53 33 -2 4 -10 7 -18 7 -8 0 -14 4 -14 8 0 7
-63 42 -75 42 -3 0 -5 -7 -5 -15 0 -8 5 -15 11 -15 6 0 25 -11 43 -25 43 -33
132 -72 181 -80 22 -3 57 -10 78 -16 20 -5 41 -7 46 -4 14 8 41 -5 41 -20 0
-8 -8 -16 -17 -18 -14 -4 -13 -5 4 -6 16 -1 20 -6 16 -21 -3 -11 -13 -20 -22
-21 -9 -1 -5 -4 9 -8 17 -5 25 -14 24 -29 0 -12 3 -22 8 -22 4 0 8 3 8 8 0 12
49 31 56 21 3 -5 -2 -12 -10 -15 -9 -3 -16 -14 -16 -24 0 -18 -48 -57 -64 -52
-19 6 -125 -23 -185 -51 -74 -34 -101 -55 -101 -79 0 -9 -4 -20 -10 -23 -5 -3
-10 -19 -10 -34 0 -16 -7 -34 -15 -41 -8 -7 -12 -17 -9 -22 3 -5 -4 -12 -15
-15 -16 -4 -19 -9 -11 -18 11 -13 3 -45 -11 -45 -5 0 -9 7 -9 15 0 8 -4 15
-10 15 -5 0 -10 -3 -10 -7 0 -9 -102 -7 -137 2 -13 3 -23 1 -23 -4 0 -5 10
-12 23 -14 14 -3 12 -4 -6 -2 -15 1 -30 -2 -33 -7 -3 -5 -10 -6 -15 -2 -6 3
-18 -1 -27 -9 -9 -7 -25 -17 -35 -20 -10 -4 -16 -11 -12 -17 4 -6 -5 -8 -22
-4 l-28 5 -1 -59 c0 -44 3 -59 12 -55 9 3 12 -5 12 -25 -1 -21 -7 -32 -21 -36
-10 -2 -16 -9 -13 -15 4 -5 1 -13 -5 -16 -5 -4 -8 -13 -5 -21 3 -7 1 -16 -3
-19 -5 -2 -11 5 -14 16 -8 30 -33 18 -29 -13 2 -14 -3 -28 -10 -31 -10 -3 -13
4 -10 29 6 50 -21 44 -48 -11 -12 -25 -26 -43 -30 -40 -5 3 -8 -8 -8 -24 1
-17 -5 -37 -12 -46 -10 -12 -9 -16 4 -21 9 -3 16 -15 16 -25 0 -12 7 -19 20
-19 11 0 20 -6 20 -14 0 -7 7 -20 16 -27 14 -12 16 -9 14 31 -4 61 -2 72 10
65 6 -4 8 -21 4 -41 -6 -32 5 -68 36 -126 6 -10 10 -23 10 -28 0 -14 53 -59
62 -53 5 2 8 13 8 24 0 29 32 20 43 -11 2 -8 3 -3 1 12 -4 36 21 57 35 29 6
-11 11 -29 11 -41 0 -13 8 -24 20 -27 11 -3 20 -12 20 -19 0 -8 7 -14 15 -14
8 0 31 -17 52 -39 22 -21 49 -41 61 -45 12 -4 22 -12 22 -17 0 -5 9 -9 19 -9
11 0 27 -9 35 -21 9 -13 19 -18 27 -13 9 5 10 2 6 -9 -4 -11 -1 -17 9 -17 8 0
17 -7 20 -15 4 -10 20 -15 45 -15 21 0 39 -5 39 -11 0 -6 9 -8 20 -4 13 4 20
2 20 -7 0 -19 96 -41 121 -27 18 9 18 11 3 34 -19 29 -44 33 -45 8 0 -15 -2
-14 -9 3 -5 12 -34 31 -76 49 -71 29 -161 91 -194 132 -15 19 -17 30 -9 56 8
27 5 37 -20 73 -39 54 -45 115 -13 129 12 5 22 18 22 28 0 11 5 17 13 14 6 -2
11 -12 9 -22 -3 -14 1 -16 23 -11 15 4 24 3 21 -2 -2 -4 13 -19 35 -32 21 -14
39 -28 39 -32 0 -5 8 -8 18 -8 11 0 -1 17 -38 50 -30 27 -59 49 -63 50 -5 0
-34 23 -65 51 l-57 50 -9 -25 c-11 -30 -31 -35 -23 -6 3 11 1 20 -4 20 -5 0
-9 7 -9 15 0 8 5 15 10 15 6 0 10 6 10 13 0 19 56 70 68 63 6 -4 13 -2 17 4 9
14 25 12 25 -3 0 -8 9 -22 20 -32 18 -16 20 -16 20 -2 0 10 4 17 8 17 16 0 21
-13 12 -30 -10 -19 4 -30 41 -30 10 0 19 -3 19 -8 0 -4 27 -9 61 -10 58 -3 60
-3 49 17 -9 17 -8 21 5 21 9 0 15 3 13 8 -24 49 -33 62 -42 62 -6 0 -19 12
-29 26 -18 24 -18 25 5 44 13 11 30 19 38 19 13 -1 13 -1 0 -6 -15 -6 -39 -33
-40 -44 0 -4 7 -9 14 -12 11 -4 13 -1 9 10 -5 13 0 15 33 9 36 -7 38 -6 19 7
-28 21 -15 29 26 15 42 -14 240 -116 255 -132 16 -16 27 -66 14 -66 -8 0 -8
-6 0 -20 10 -18 8 -19 -32 -16 -23 2 -44 9 -46 16 -3 9 -6 9 -13 -1 -6 -10 2
-17 29 -26 20 -7 27 -11 15 -9 -13 2 -26 0 -29 -5 -3 -5 -18 -9 -35 -9 l-29 0
24 -37 c16 -25 31 -38 45 -37 12 0 21 -6 22 -15 1 -9 4 -5 8 9 l7 24 22 -22
c12 -12 28 -19 37 -16 10 4 15 0 15 -10 0 -9 -4 -16 -8 -16 -14 0 -14 -97 -1
-118 7 -11 19 -18 26 -15 7 3 13 0 13 -6 0 -6 -3 -10 -7 -9 -5 2 -10 -1 -12
-7 -14 -36 -81 -48 -81 -15 0 11 5 20 11 20 8 0 9 4 0 13 -6 8 -7 18 -3 23 4
4 -1 2 -12 -6 -10 -8 -14 -16 -10 -17 24 -8 -2 -108 -32 -126 -8 -4 -14 -13
-14 -18 0 -16 -24 -36 -37 -32 -12 4 -28 -15 -20 -23 3 -3 15 0 27 6 17 9 24
9 30 1 5 -8 15 -7 36 4 16 8 33 15 37 15 4 0 23 16 42 35 19 19 44 39 55 45
11 6 20 17 20 25 0 19 38 57 49 50 12 -7 27 14 35 50 9 41 7 71 -6 105 -4 8
-9 32 -13 53 -4 27 -13 41 -30 49 -14 6 -27 23 -30 39 -3 15 -13 30 -22 33
-13 6 -14 9 -3 19 10 9 13 9 17 0 3 -7 11 -13 19 -13 8 0 14 -6 14 -14 0 -8 7
-16 15 -20 8 -3 15 -12 15 -21 0 -8 7 -15 15 -15 17 0 19 14 5 39 -7 15 -14
51 -19 104 -1 4 -6 7 -12 7 -6 0 -17 7 -25 15 -25 24 7 49 53 42 19 -4 33 -3
29 0 -4 4 4 13 16 20 l23 12 -22 1 c-13 0 -31 13 -44 33 -44 61 -46 62 -132
59 -69 -2 -83 0 -102 18 -16 15 -21 29 -18 61 2 25 -1 38 -7 34 -6 -3 -7 1 -4
9 4 12 0 16 -16 16 -13 0 -19 4 -14 12 4 6 3 8 -3 5 -6 -4 -28 2 -49 12 -22
11 -70 27 -109 36 -38 10 -73 20 -78 24 -12 12 4 71 20 71 10 0 13 6 9 15 -7
19 21 32 36 17 8 -8 15 -8 24 -1 8 6 26 8 44 4 23 -5 30 -12 30 -31 0 -16 6
-25 18 -26 94 -8 110 -5 114 25 2 12 10 22 18 22 8 0 21 12 28 28 7 15 17 27
21 27 4 0 8 35 7 78 -1 68 1 77 17 76 9 -1 17 4 17 12 0 8 -4 14 -10 14 -5 0
-10 5 -10 11 0 6 8 8 19 4 21 -6 51 31 51 64 0 11 5 23 10 26 6 4 8 15 5 26
-4 12 -2 19 7 19 9 1 7 5 -4 14 -10 7 -18 18 -18 25 0 6 -5 11 -12 11 -6 0 -8
3 -5 6 3 4 2 15 -3 25 -7 12 -6 19 3 22 16 5 -6 33 -33 40 -15 4 -24 -5 -40
-38 -20 -41 -76 -95 -99 -95 -6 0 -11 13 -11 29 0 15 -9 57 -20 92 -48 151
-108 208 -310 297 -25 11 -25 11 8 11 18 1 42 -4 53 -9 18 -10 20 -9 19 18 0
4 -10 7 -23 7 -15 0 -23 7 -25 23 -2 13 -9 21 -15 19 -7 -2 -16 6 -22 17 -7
14 -22 22 -43 24 -41 4 -42 22 -1 22 23 0 30 4 25 15 -6 18 29 41 39 25 3 -5
26 -10 51 -10 60 0 101 -19 176 -80 39 -31 70 -49 81 -46 19 5 24 -10 5 -17
-7 -3 -4 -6 7 -6 11 -1 31 -8 43 -17 12 -8 22 -12 22 -9 0 3 9 1 20 -5 14 -8
20 -8 20 0 0 6 5 8 10 5 6 -3 10 1 10 11 0 13 3 14 15 4 8 -7 15 -19 15 -27 0
-8 6 -13 12 -11 18 6 13 73 -8 119 -12 29 -27 43 -60 56 -33 14 -42 22 -38 36
3 9 0 17 -6 17 -6 0 -8 -4 -5 -10 11 -17 -21 -11 -44 9 -25 22 -19 51 13 51
17 0 18 2 6 10 -11 7 -2 10 32 10 26 0 50 5 53 10 3 6 17 10 30 10 13 0 29 8
34 18 10 16 12 16 25 -1 12 -15 18 -16 35 -7 29 15 26 30 -10 43 -22 9 -29 17
-25 30 3 14 2 16 -9 7 -8 -6 -16 -7 -19 -2 -3 5 -19 12 -36 15 -16 4 -30 11
-30 17 0 18 31 24 53 11 14 -9 22 -10 30 -2 8 8 8 11 -1 11 -7 0 -12 7 -12 15
0 9 9 15 25 15 30 0 31 4 5 30 -12 12 -18 25 -15 30 9 14 35 12 35 -2 0 -7 5
-5 11 5 11 19 44 23 54 6z m-489 -605 c59 -35 100 -89 135 -180 32 -82 36
-104 13 -61 -8 15 -19 27 -23 27 -5 0 -12 7 -15 16 -3 9 -2 12 5 9 6 -4 7 3 3
22 -10 43 -26 65 -19 26 4 -18 4 -33 0 -33 -18 0 -55 35 -55 52 0 14 -5 18
-16 14 -8 -3 -22 0 -30 8 -16 17 -19 30 -4 21 6 -3 10 -1 10 5 0 6 -10 8 -24
4 -27 -6 -53 5 -91 40 -27 25 -24 36 12 36 14 0 21 4 18 10 -12 19 37 10 81
-16z m1429 -1935 c19 -17 35 -38 35 -47 0 -20 39 -62 57 -62 15 0 13 -55 -5
-139 -6 -25 -8 -51 -5 -58 8 -21 -15 -15 -27 8 -7 11 -14 18 -17 16 -2 -3 1
-16 8 -28 7 -13 11 -42 10 -64 -4 -61 -9 -120 -11 -122 -2 -2 -3 -7 -4 -13 -1
-10 -12 -11 -34 -2 -7 2 -16 2 -19 -2 -4 -3 -1 -6 5 -6 7 0 12 -6 12 -14 0 -8
5 -16 12 -18 6 -2 9 -12 5 -21 -4 -10 -12 -14 -22 -11 -9 4 -15 1 -15 -8 0 -7
8 -15 18 -16 14 -2 65 -9 82 -11 3 -1 13 -14 22 -29 16 -26 16 -31 2 -50 -8
-12 -22 -22 -30 -22 -11 0 -14 -16 -14 -69 0 -39 -7 -84 -15 -106 -16 -36 -17
-36 -58 -30 -23 4 -48 12 -55 18 -10 8 -16 7 -23 -4 -19 -30 -9 -38 49 -41 43
-2 57 -7 57 -18 0 -12 -12 -14 -57 -12 -53 2 -58 0 -58 -18 0 -18 4 -20 34
-15 39 8 55 -7 32 -30 -9 -9 -17 -11 -21 -5 -10 16 -28 12 -21 -5 22 -57 -50
-51 -189 15 -101 49 -146 82 -126 95 15 9 14 25 -2 25 -16 0 1 138 19 158 16
15 24 15 24 0 0 -25 35 -98 48 -98 14 0 16 26 2 35 -5 3 -17 30 -27 61 -11 35
-21 53 -30 50 -15 -6 -27 47 -20 90 3 22 4 19 6 -13 0 -24 6 -43 12 -43 6 0 8
8 6 18 -12 43 -18 117 -9 107 6 -5 12 -19 14 -30 2 -10 3 18 4 63 0 71 4 86
22 104 l21 21 68 -22 c37 -12 89 -36 114 -52 50 -32 101 -41 79 -14 -7 8 -30
18 -51 21 -22 4 -39 10 -39 15 0 5 -7 9 -15 9 -9 0 -27 11 -40 25 -14 13 -25
22 -25 19 0 -4 -42 16 -69 35 -15 10 -9 21 31 58 9 9 14 21 11 26 -3 6 -1 7 4
4 6 -4 16 0 23 8 15 18 27 19 33 3 2 -7 3 -2 2 12 -3 25 34 80 54 80 5 0 7 8
4 19 -5 21 48 133 54 113 3 -6 9 -9 14 -6 6 3 16 0 24 -6 17 -14 42 -3 27 12
-6 6 -21 16 -34 22 -23 12 -38 46 -19 46 6 0 26 -14 46 -31z m-2223 -2402 c4
-28 9 -56 10 -62 0 -5 -2 -25 -6 -42 -6 -25 -4 -33 6 -33 8 0 25 -11 38 -25
35 -37 19 -56 -50 -60 -30 -2 -76 -6 -102 -9 -26 -3 -50 -1 -53 4 -3 6 -2 10
3 10 5 0 14 10 20 23 35 70 101 215 107 235 10 32 17 21 27 -41z m-750 -458
c1 -77 3 -90 13 -75 8 11 15 13 20 7 11 -19 -10 -37 -65 -56 -3 -1 -12 -5 -20
-8 -8 -4 -53 -14 -100 -22 -76 -14 -118 -18 -227 -23 -28 -2 -34 -7 -41 -34
-5 -18 -6 -36 -3 -39 5 -5 63 -1 180 15 68 9 151 35 151 48 0 6 3 8 7 5 3 -4
21 3 40 14 18 11 33 17 33 12 -1 -16 -25 -38 -45 -41 -48 -8 -50 -19 -52 -255
-2 -208 -12 -300 -35 -337 -7 -11 -8 -10 -3 5 7 22 11 87 20 335 3 91 8 180
12 199 5 32 4 34 -18 27 -13 -3 -49 -13 -79 -22 -30 -8 -91 -18 -135 -21 -44
-3 -86 -10 -94 -16 -11 -10 -12 -6 -7 23 l6 35 -22 -29 c-44 -57 -76 -91 -81
-86 -3 3 8 23 24 45 48 67 55 84 41 106 -18 29 -4 44 20 23 16 -15 21 -16 28
-4 7 11 29 14 94 11 53 -2 86 1 86 7 0 6 15 10 33 10 58 -2 146 14 158 28 6 8
15 11 20 9 10 -7 29 28 29 54 0 12 -4 21 -10 21 -5 0 -10 -10 -10 -22 0 -16
-3 -19 -8 -10 -7 10 -25 10 -88 1 -43 -6 -87 -15 -97 -21 -15 -7 -18 -6 -15 8
2 14 15 19 58 21 30 2 71 8 91 13 35 10 37 13 47 68 l9 57 2 -53 c1 -72 21
-58 21 15 0 31 2 54 6 51 3 -3 5 -47 6 -99z m-592 -1072 c-6 -40 -13 -82 -16
-93 -5 -18 -1 -22 23 -22 31 0 96 14 131 28 37 16 76 34 86 39 5 2 6 -1 2 -7
-12 -20 -94 -53 -172 -67 -81 -16 -94 -24 -94 -64 0 -22 2 -23 45 -18 25 4 59
13 75 22 33 17 70 21 54 5 -13 -13 -131 -50 -160 -50 -24 0 -54 -42 -54 -77 0
-10 -14 -34 -31 -53 l-30 -35 27 60 c14 33 27 65 29 70 1 6 10 37 20 70 9 33
21 74 26 90 7 26 23 122 34 214 4 40 8 40 12 -2 3 -21 -1 -71 -7 -110z m1142
-14 c19 -38 41 -78 48 -90 8 -12 12 -24 10 -26 -3 -2 -43 -30 -90 -62 -47 -32
-88 -63 -92 -69 -5 -8 -8 -7 -8 1 0 7 9 18 20 25 11 7 20 17 20 22 0 6 -5 5
-12 -2 -7 -7 -18 -12 -26 -12 -12 0 -12 3 -2 15 10 12 10 15 0 15 -9 0 -11 10
-6 32 l6 32 -28 -27 c-43 -41 -60 -36 -58 18 1 38 7 51 41 87 39 40 124 107
137 108 3 0 22 -30 40 -67z"/>
<path d="M3375 6191 c-12 -5 -27 -16 -34 -25 -14 -17 -36 -23 -26 -7 7 13 -15
25 -26 14 -8 -8 10 -85 24 -99 4 -4 7 -16 7 -26 0 -10 4 -18 10 -18 5 0 23
-26 39 -58 17 -35 53 -79 90 -114 34 -31 61 -54 61 -52 0 3 10 -2 23 -10 28
-18 107 -30 107 -16 0 5 -5 10 -11 10 -5 0 -7 5 -4 10 3 6 1 10 -4 10 -6 0
-11 7 -11 15 0 8 -4 15 -10 15 -5 0 -10 7 -10 15 0 9 -6 12 -17 8 -11 -4 -14
-3 -9 5 4 7 1 12 -7 12 -8 0 -17 7 -21 15 -3 8 -13 15 -21 15 -9 0 -13 5 -10
10 3 6 1 10 -5 10 -7 0 -37 23 -68 50 -54 49 -57 50 -62 28 -5 -20 -9 -17 -29
25 -13 26 -20 55 -17 64 7 16 10 14 106 -77 39 -37 48 -41 69 -28 18 11 24 9
48 -16 16 -16 21 -25 13 -21 -8 5 -2 -6 14 -23 20 -22 25 -32 15 -33 -9 0 -7
-3 5 -8 11 -4 21 -18 23 -32 2 -13 8 -26 13 -27 17 -6 115 -75 122 -86 5 -7 8
-7 8 -1 0 6 7 2 14 -8 12 -16 14 -15 21 15 5 18 8 43 7 56 -1 12 4 22 11 22 7
0 6 4 -3 10 -12 8 -12 10 3 16 13 5 15 9 6 20 -6 7 -13 41 -14 75 -2 38 -9 67
-20 79 -14 16 -14 18 0 23 19 8 19 18 -1 43 -15 18 -15 18 -11 -8 2 -16 2 -28
0 -28 -3 0 -26 18 -51 40 -80 71 -134 92 -242 96 -52 2 -104 0 -115 -5z"/>
<path d="M3320 5330 c1 -117 -3 -166 -14 -199 -9 -24 -16 -50 -16 -57 0 -24
29 -15 36 11 3 14 14 29 22 34 38 21 30 305 -9 346 -19 20 -19 18 -19 -135z"/>
<path d="M3890 8511 c0 -5 29 -91 64 -192 64 -186 78 -208 102 -162 6 13 14
20 19 15 4 -4 5 1 2 10 -4 11 5 35 23 62 17 24 30 49 30 55 0 6 5 11 10 11 6
0 10 7 10 15 0 8 4 15 10 15 5 0 16 15 23 33 8 17 24 40 35 50 11 11 18 24 16
31 -3 7 2 19 11 26 8 7 15 19 15 26 0 11 -35 14 -185 14 -102 0 -185 -4 -185
-9z"/>
<path d="M3866 8439 c-2 -8 -10 -31 -16 -51 -6 -20 -18 -42 -25 -48 -8 -7 -34
-47 -57 -89 -22 -42 -50 -89 -61 -104 -17 -24 -17 -32 -6 -59 l12 -30 18 23
c10 13 19 27 19 31 0 4 11 19 25 34 14 15 25 31 25 35 0 10 99 157 110 164 8
5 -16 84 -30 99 -6 6 -11 4 -14 -5z"/>
<path d="M3861 8223 c-70 -122 -78 -136 -105 -176 -15 -24 -16 -32 -6 -57 l12
-30 19 24 c11 13 19 28 19 33 0 5 8 18 18 29 9 10 37 52 61 92 24 39 50 72 57
72 8 0 14 -2 14 -5 0 -3 -38 -67 -84 -142 -73 -119 -82 -140 -73 -160 5 -13
13 -23 16 -23 5 0 45 56 76 108 66 109 121 164 95 96 -6 -14 -8 -30 -4 -35 3
-5 1 -9 -4 -9 -4 0 -20 -18 -34 -39 -25 -38 -25 -39 -4 -32 11 5 23 17 24 27
2 11 13 28 23 40 11 11 18 22 17 25 -2 2 3 -3 10 -11 12 -13 13 -10 7 20 -6
32 -19 70 -70 213 -10 26 -19 47 -20 47 -1 0 -30 -48 -64 -107z"/>
<path d="M4226 7798 c5 -8 0 -9 -15 -5 -22 5 -22 5 -6 -20 16 -23 16 -27 1
-41 -15 -15 -16 -14 -16 6 0 30 -15 28 -18 -3 -1 -14 3 -25 8 -25 6 0 8 -11 4
-25 -9 -36 -1 -31 37 25 19 27 40 50 47 50 21 0 13 -35 -19 -83 -24 -37 -28
-50 -20 -66 16 -30 13 -36 -8 -17 -19 17 -20 17 -37 -16 -9 -18 -20 -35 -23
-38 -4 -3 -15 -16 -24 -30 -17 -24 -16 -25 40 -76 51 -47 58 -51 70 -36 15 20
17 42 3 42 -5 0 -10 6 -10 14 0 8 -6 16 -12 19 -7 2 -9 8 -5 13 5 5 17 -2 28
-16 l19 -25 25 30 c22 27 23 30 7 36 -22 9 -55 49 -47 57 4 4 12 0 18 -8 7 -8
20 -21 29 -29 16 -12 20 -10 38 10 23 29 26 49 5 49 -8 0 -15 5 -15 11 0 6 7
9 15 5 12 -4 15 3 15 37 0 38 -6 48 -61 105 -55 55 -92 82 -73 50z"/>
</g>
</svg>
